{
    "asset" : {
        "generator" : "Khronos glTF Blender I/O v1.8.19",
        "version" : "2.0"
    },
    "scene" : 0,
    "scenes" : [
        {
            "name" : "Scene",
            "nodes" : [
                0,
                1,
                2
            ]
        }
    ],
    "nodes" : [
        {
            "mesh" : 0,
            "name" : "Corpo",
            "scale" : [
                5.773502349853516,
                61,
                5
            ]
        },
        {
            "mesh" : 1,
            "name" : "Borracha/Touch",
            "scale" : [
                4.400000095367432,
                6,
                4.400000095367432
            ],
            "translation" : [
                0,
                60.95076370239258,
                0
            ]
        },
        {
            "mesh" : 2,
            "name" : "Ponta",
            "scale" : [
                4,
                0.03817443549633026,
                4
            ],
            "translation" : [
                0,
                -62.24909591674805,
                0
            ]
        }
    ],
    "materials" : [
        {
            "doubleSided" : true,
            "name" : "Material.008",
            "pbrMetallicRoughness" : {
                "baseColorFactor" : [
                    0.7484118938446045,
                    0.7484118938446045,
                    0.7484118938446045,
                    1
                ],
                "metallicFactor" : 0.10000000149011612,
                "roughnessFactor" : 0.5
            }
        },
        {
            "doubleSided" : true,
            "name" : "Material.001",
            "pbrMetallicRoughness" : {
                "baseColorFactor" : [
                    0.0308834258466959,
                    0.03106432594358921,
                    0.03106432594358921,
                    1
                ],
                "metallicFactor" : 0,
                "roughnessFactor" : 0.5
            }
        },
        {
            "doubleSided" : true,
            "name" : "Material.007",
            "pbrMetallicRoughness" : {
                "baseColorFactor" : [
                    0.44798707962036133,
                    0.44798707962036133,
                    0.44798707962036133,
                    1
                ],
                "metallicFactor" : 0.5,
                "roughnessFactor" : 0.5
            }
        }
    ],
    "meshes" : [
        {
            "name" : "Cylinder",
            "primitives" : [
                {
                    "attributes" : {
                        "POSITION" : 0,
                        "NORMAL" : 1,
                        "TEXCOORD_0" : 2
                    },
                    "indices" : 3,
                    "material" : 0
                }
            ]
        },
        {
            "name" : "Sphere",
            "primitives" : [
                {
                    "attributes" : {
                        "POSITION" : 4,
                        "NORMAL" : 5,
                        "TEXCOORD_0" : 6
                    },
                    "indices" : 7,
                    "material" : 1
                }
            ]
        },
        {
            "name" : "Cylinder.003",
            "primitives" : [
                {
                    "attributes" : {
                        "POSITION" : 8,
                        "NORMAL" : 9,
                        "TEXCOORD_0" : 10
                    },
                    "indices" : 11,
                    "material" : 2
                }
            ]
        }
    ],
    "accessors" : [
        {
            "bufferView" : 0,
            "componentType" : 5126,
            "count" : 312,
            "max" : [
                0.866025447845459,
                1.0184426307678223,
                1
            ],
            "min" : [
                -0.866025447845459,
                -1.0199999809265137,
                -1
            ],
            "type" : "VEC3"
        },
        {
            "bufferView" : 1,
            "componentType" : 5126,
            "count" : 312,
            "type" : "VEC3"
        },
        {
            "bufferView" : 2,
            "componentType" : 5126,
            "count" : 312,
            "type" : "VEC2"
        },
        {
            "bufferView" : 3,
            "componentType" : 5123,
            "count" : 564,
            "type" : "SCALAR"
        },
        {
            "bufferView" : 4,
            "componentType" : 5126,
            "count" : 1984,
            "max" : [
                0.9999997019767761,
                1.2972142696380615,
                0.9999994039535522
            ],
            "min" : [
                -0.9999990463256836,
                -0.7027857303619385,
                -0.9999987483024597
            ],
            "type" : "VEC3"
        },
        {
            "bufferView" : 5,
            "componentType" : 5126,
            "count" : 1984,
            "type" : "VEC3"
        },
        {
            "bufferView" : 6,
            "componentType" : 5126,
            "count" : 1984,
            "type" : "VEC2"
        },
        {
            "bufferView" : 7,
            "componentType" : 5123,
            "count" : 2880,
            "type" : "SCALAR"
        },
        {
            "bufferView" : 8,
            "componentType" : 5126,
            "count" : 448,
            "max" : [
                1,
                1,
                1
            ],
            "min" : [
                -1,
                -365.7375793457031,
                -1
            ],
            "type" : "VEC3"
        },
        {
            "bufferView" : 9,
            "componentType" : 5126,
            "count" : 448,
            "type" : "VEC3"
        },
        {
            "bufferView" : 10,
            "componentType" : 5126,
            "count" : 448,
            "type" : "VEC2"
        },
        {
            "bufferView" : 11,
            "componentType" : 5123,
            "count" : 756,
            "type" : "SCALAR"
        }
    ],
    "bufferViews" : [
        {
            "buffer" : 0,
            "byteLength" : 3744,
            "byteOffset" : 0
        },
        {
            "buffer" : 0,
            "byteLength" : 3744,
            "byteOffset" : 3744
        },
        {
            "buffer" : 0,
            "byteLength" : 2496,
            "byteOffset" : 7488
        },
        {
            "buffer" : 0,
            "byteLength" : 1128,
            "byteOffset" : 9984
        },
        {
            "buffer" : 0,
            "byteLength" : 23808,
            "byteOffset" : 11112
        },
        {
            "buffer" : 0,
            "byteLength" : 23808,
            "byteOffset" : 34920
        },
        {
            "buffer" : 0,
            "byteLength" : 15872,
            "byteOffset" : 58728
        },
        {
            "buffer" : 0,
            "byteLength" : 5760,
            "byteOffset" : 74600
        },
        {
            "buffer" : 0,
            "byteLength" : 5376,
            "byteOffset" : 80360
        },
        {
            "buffer" : 0,
            "byteLength" : 5376,
            "byteOffset" : 85736
        },
        {
            "buffer" : 0,
            "byteLength" : 3584,
            "byteOffset" : 91112
        },
        {
            "buffer" : 0,
            "byteLength" : 1512,
            "byteOffset" : 94696
        }
    ],
    "buffers" : [
        {
            "byteLength" : 96208,
            "uri" : "data:application/octet-stream;base64,"
        }
    ]
}
